<svg width="101" height="33" viewBox="0 0 101 33" fill="none" xmlns="http://www.w3.org/2000/svg">
<g clip-path="url(#clip0_146_286)">
<path d="M53.4195 8.69918C53.4195 9.82929 52.5127 10.7396 51.3871 10.7396C50.2615 10.7396 49.3547 9.82929 49.3547 8.69918C49.3547 7.56907 50.2302 6.65871 51.3871 6.65871C52.544 6.6901 53.4195 7.60046 53.4195 8.69918ZM45.0398 12.8115C45.0398 12.9999 45.0398 13.3138 45.0398 13.3138C45.0398 13.3138 44.0705 12.0581 42.0069 12.0581C38.5988 12.0581 35.941 14.6636 35.941 18.2737C35.941 21.8524 38.5675 24.4893 42.0069 24.4893C44.1018 24.4893 45.0398 23.2022 45.0398 23.2022V23.7359C45.0398 23.987 45.2274 24.1754 45.4776 24.1754H48.0102V12.372C48.0102 12.372 45.6964 12.372 45.4776 12.372C45.2274 12.372 45.0398 12.5918 45.0398 12.8115ZM45.0398 20.3769C44.5708 21.0676 43.6328 21.664 42.5072 21.664C40.5061 21.664 38.974 20.4083 38.974 18.2737C38.974 16.139 40.5061 14.8834 42.5072 14.8834C43.6015 14.8834 44.6021 15.5112 45.0398 16.1704V20.3769ZM49.8862 12.372H52.8879V24.1754H49.8862V12.372ZM94.7235 12.0581C92.6599 12.0581 91.6906 13.3138 91.6906 13.3138V6.6901H88.6889V24.1754C88.6889 24.1754 91.0027 24.1754 91.2216 24.1754C91.4717 24.1754 91.6593 23.9556 91.6593 23.7359V23.2022C91.6593 23.2022 92.6286 24.4893 94.6923 24.4893C98.1004 24.4893 100.758 21.8524 100.758 18.2737C100.758 14.695 98.1004 12.0581 94.7235 12.0581ZM94.2233 21.6326C93.0664 21.6326 92.1596 21.0362 91.6906 20.3456V16.139C92.1596 15.5112 93.1602 14.852 94.2233 14.852C96.2244 14.852 97.7565 16.1077 97.7565 18.2423C97.7565 20.3769 96.2244 21.6326 94.2233 21.6326ZM87.1256 17.175V24.2068H84.1239V17.5203C84.1239 15.574 83.4986 14.7892 81.8102 14.7892C80.9034 14.7892 79.9654 15.2601 79.3713 15.9507V24.1754H76.3696V12.372H78.746C78.9961 12.372 79.1837 12.5918 79.1837 12.8115V13.3138C80.0592 12.4034 81.2161 12.0581 82.373 12.0581C83.6862 12.0581 84.7805 12.4348 85.656 13.1882C86.7191 14.0672 87.1256 15.1973 87.1256 17.175ZM69.0844 12.0581C67.0207 12.0581 66.0514 13.3138 66.0514 13.3138V6.6901H63.0498V24.1754C63.0498 24.1754 65.3636 24.1754 65.5824 24.1754C65.8326 24.1754 66.0202 23.9556 66.0202 23.7359V23.2022C66.0202 23.2022 66.9895 24.4893 69.0531 24.4893C72.4612 24.4893 75.1189 21.8524 75.1189 18.2737C75.1502 14.695 72.4925 12.0581 69.0844 12.0581ZM68.5841 21.6326C67.4272 21.6326 66.5204 21.0362 66.0514 20.3456V16.139C66.5204 15.5112 67.521 14.852 68.5841 14.852C70.5852 14.852 72.1173 16.1077 72.1173 18.2423C72.1173 20.3769 70.5852 21.6326 68.5841 21.6326ZM60.4546 12.0581C61.3613 12.0581 61.8304 12.2151 61.8304 12.2151V15.0089C61.8304 15.0089 59.329 14.1614 57.7656 15.9507V24.2068H54.764V12.372C54.764 12.372 57.0777 12.372 57.2966 12.372C57.5467 12.372 57.7343 12.5918 57.7343 12.8115V13.3138C58.2972 12.6546 59.5166 12.0581 60.4546 12.0581ZM29.2811 23.108C29.1248 22.7313 28.9684 22.3232 28.8121 21.9779C28.562 21.4129 28.3118 20.8792 28.093 20.3769L28.0617 20.3456C25.9042 15.6368 23.5905 10.8652 21.1516 6.15644L21.0578 5.96809C20.8077 5.49721 20.5575 4.99494 20.3074 4.49267C19.9947 3.92762 19.6821 3.33117 19.1818 2.76612C18.1812 1.51044 16.7429 0.819824 15.2108 0.819824C13.6475 0.819824 12.2404 1.51044 11.2086 2.70334C10.7396 3.26839 10.3957 3.86483 10.083 4.42989C9.83286 4.93216 9.58273 5.43443 9.33259 5.9053L9.23879 6.09366C6.83121 10.8024 4.48616 15.574 2.32872 20.2828L2.29745 20.3456C2.07858 20.8478 1.82844 21.3815 1.5783 21.9465C1.42197 22.2919 1.26563 22.6686 1.10929 23.0766C0.702818 24.2381 0.577749 25.3369 0.734085 26.467C1.07803 28.8214 2.64139 30.799 4.79883 31.678C5.61178 32.0233 6.456 32.1803 7.33148 32.1803C7.58162 32.1803 7.89429 32.1489 8.14443 32.1175C9.17625 31.9919 10.2393 31.6466 11.2712 31.0502C12.5531 30.3282 13.7725 29.2922 15.1483 27.7854C16.5241 29.2922 17.7748 30.3282 19.0254 31.0502C20.0573 31.6466 21.1204 31.9919 22.1522 32.1175C22.4023 32.1489 22.715 32.1803 22.9651 32.1803C23.8406 32.1803 24.7161 32.0233 25.4978 31.678C27.6865 30.799 29.2186 28.79 29.5625 26.467C29.8127 25.3683 29.6876 24.2695 29.2811 23.108ZM15.1796 24.7404C13.4911 22.6058 12.3968 20.5967 12.0216 18.9015C11.8652 18.1795 11.834 17.5517 11.9278 16.9866C11.9903 16.4844 12.1779 16.0449 12.428 15.6682C13.0221 14.8206 14.0227 14.2869 15.1796 14.2869C16.3365 14.2869 17.3683 14.7892 17.9311 15.6682C18.1812 16.0449 18.3688 16.4844 18.4314 16.9866C18.5252 17.5517 18.4939 18.2109 18.3376 18.9015C17.9624 20.5653 16.868 22.5744 15.1796 24.7404ZM27.6552 26.2158C27.4363 27.8482 26.342 29.2608 24.8099 29.8887C24.0595 30.2026 23.2465 30.2968 22.4336 30.2026C21.6519 30.1084 20.8702 29.8573 20.0573 29.3864C18.9316 28.7586 17.806 27.7854 16.4928 26.3414C18.5564 23.7987 19.8071 21.4757 20.2761 19.4038C20.495 18.4307 20.5263 17.5517 20.4325 16.7355C20.3074 15.9507 20.026 15.2287 19.5883 14.6008C18.619 13.1882 16.9931 12.372 15.1796 12.372C13.3661 12.372 11.7402 13.2196 10.7709 14.6008C10.3331 15.2287 10.0517 15.9507 9.92667 16.7355C9.8016 17.5517 9.83286 18.462 10.083 19.4038C10.552 21.4757 11.834 23.8301 13.8663 26.3728C12.5844 27.8168 11.4275 28.79 10.3019 29.4178C9.48892 29.8887 8.70724 30.1398 7.92556 30.234C7.08134 30.3282 6.26839 30.2026 5.54925 29.9201C4.01715 29.2922 2.9228 27.8796 2.70392 26.2472C2.61012 25.4624 2.67266 24.6776 2.98533 23.7987C3.07913 23.4847 3.23547 23.1708 3.3918 22.7941C3.61068 22.2919 3.86081 21.7582 4.11095 21.2245L4.14222 21.1617C6.29966 16.4844 8.61344 11.7128 11.021 7.0668L11.1148 6.87845C11.365 6.40757 11.6151 5.9053 11.8652 5.43443C12.1154 4.93216 12.3968 4.46128 12.7407 4.05319C13.3973 3.29978 14.2728 2.89169 15.2421 2.89169C16.2114 2.89169 17.0869 3.29978 17.7435 4.05319C18.0874 4.46128 18.3688 4.93216 18.619 5.43443C18.8691 5.9053 19.1192 6.40757 19.3694 6.87845L19.4632 7.0668C21.8395 11.7442 24.1533 16.5158 26.3107 21.1931V21.2245C26.5609 21.7268 26.7797 22.2919 27.0299 22.7941C27.1862 23.1708 27.3425 23.4847 27.4363 23.7987C27.6865 24.6148 27.7803 25.3996 27.6552 26.2158Z" fill="#FF385C"/>
</g>
<defs>
<clipPath id="clip0_146_286">
<rect width="100.087" height="31.3605" fill="white" transform="translate(0.671875 0.819824)"/>
</clipPath>
</defs>
</svg>
