<svg width="60" height="51" viewBox="0 0 60 51" fill="none" xmlns="http://www.w3.org/2000/svg">
<path fill-rule="evenodd" clip-rule="evenodd" d="M0 19.3495C0 12.5772 3.97364e-07 9.19102 1.45333 6.60303C2.73163 4.3276 4.77128 2.47761 7.28 1.31819C10.1333 -3.60413e-07 13.8667 0 21.3333 0H38.6667C46.1333 0 49.8667 -3.60413e-07 52.72 1.31819C55.2287 2.47761 57.2684 4.3276 58.5467 6.60303C60 9.19102 60 12.5772 60 19.3495V22.9776C60 29.7499 60 33.1361 58.5467 35.7241C57.2684 37.9995 55.2287 39.8495 52.72 41.0089C49.8667 42.3271 46.1333 42.3271 38.6667 42.3271H14.7133C13.8294 42.3273 12.9816 42.6459 12.3567 43.2129L5.69 49.2597C3.59 51.1644 0 49.816 0 47.1221V19.3495ZM20 12.0935C19.1159 12.0935 18.2681 12.412 17.643 12.979C17.0179 13.546 16.6667 14.315 16.6667 15.1168C16.6667 15.9187 17.0179 16.6877 17.643 17.2547C18.2681 17.8216 19.1159 18.1402 20 18.1402H40C40.8841 18.1402 41.7319 17.8216 42.357 17.2547C42.9821 16.6877 43.3333 15.9187 43.3333 15.1168C43.3333 14.315 42.9821 13.546 42.357 12.979C41.7319 12.412 40.8841 12.0935 40 12.0935H20ZM20 24.1869C19.1159 24.1869 18.2681 24.5054 17.643 25.0724C17.0179 25.6394 16.6667 26.4084 16.6667 27.2103C16.6667 28.0121 17.0179 28.7811 17.643 29.3481C18.2681 29.9151 19.1159 30.2336 20 30.2336H30C30.8841 30.2336 31.7319 29.9151 32.357 29.3481C32.9821 28.7811 33.3333 28.0121 33.3333 27.2103C33.3333 26.4084 32.9821 25.6394 32.357 25.0724C31.7319 24.5054 30.8841 24.1869 30 24.1869H20Z" fill="#178FA0"/>
</svg>
