<svg width="150" height="31" viewBox="0 0 150 31" fill="none" xmlns="http://www.w3.org/2000/svg">
<mask id="mask0_146_269" style="mask-type:luminance" maskUnits="userSpaceOnUse" x="0" y="0" width="150" height="31">
<path d="M149.382 0.5H0.333984V30.5H149.382V0.5Z" fill="white"/>
</mask>
<g mask="url(#mask0_146_269)">
<path d="M21.608 27.2895H5.83771C2.8036 27.2895 0.333984 24.8199 0.333984 21.774V6.00369C0.333984 2.96962 2.8036 0.5 5.83771 0.5H21.608C24.6538 0.5 27.1117 2.96962 27.1117 6.00369V21.774C27.1235 24.8199 24.6538 27.2895 21.608 27.2895Z" fill="#FDDB32"/>
<path d="M8.51765 22.0803V19.4813C8.51765 19.2696 8.35297 19.105 8.14133 19.105H5.54234C5.33065 19.105 5.16602 19.2696 5.16602 19.4813V22.0803C5.16602 22.292 5.33065 22.4566 5.54234 22.4566H8.14133C8.35297 22.4566 8.51765 22.292 8.51765 22.0803Z" fill="#191E3B"/>
<path d="M22.2912 19.845V7.03831C22.2912 6.08569 21.5268 5.32129 20.5742 5.32129H7.76744C7.50872 5.32129 7.35586 5.4154 7.19122 5.58001L4.63928 8.15547C4.45112 8.34363 4.58048 8.6259 4.86273 8.6259H16.4464L9.26099 15.8113C9.13163 15.9407 9.07283 16.07 9.07283 16.2817V18.1751C9.07283 18.3985 9.22574 18.5514 9.44914 18.5514H11.3425C11.566 18.5514 11.6953 18.4926 11.8129 18.3633L18.9984 11.1778V22.7615C18.9984 23.0438 19.2806 23.1731 19.4688 22.985L22.0443 20.4213C22.1971 20.2566 22.2912 20.1038 22.2912 19.845Z" fill="#191E3B"/>
<path d="M61.169 16.5407L66.4139 9.29656C66.5668 9.07308 66.4493 8.84961 66.1905 8.84961H63.3328C63.18 8.84961 62.98 8.90847 62.8859 9.07308L59.4285 14.1182L55.8887 9.07308C55.7946 8.92018 55.6064 8.84961 55.4418 8.84961H52.3959C52.2431 8.84961 52.1372 8.97897 52.1372 9.10833C52.1372 9.1672 52.1372 9.23769 52.196 9.29656L57.4528 16.5643L51.6551 24.5376C51.5022 24.761 51.6197 24.9845 51.8432 24.9845H54.7244C54.8773 24.9845 55.0773 24.9257 55.1713 24.761L59.1815 18.9868L63.2505 24.761C63.3446 24.9257 63.5327 24.9845 63.6974 24.9845H66.7668C66.9197 24.9845 67.0255 24.8551 67.0255 24.7258C67.0255 24.667 66.9902 24.5964 66.9667 24.5376L61.169 16.5407Z" fill="#191E3B"/>
<path d="M49.4559 2.79297C49.6794 2.79297 49.8323 2.94586 49.8323 3.16929V5.32142C49.8323 5.54482 49.6794 5.69773 49.4559 5.69773H39.2129V12.0952H48.4093C48.6327 12.0952 48.7857 12.2481 48.7857 12.4716V14.6118C48.7857 14.8353 48.6327 14.9882 48.4093 14.9882H39.2129V21.9972H49.4559C49.6794 21.9972 49.8323 22.1501 49.8323 22.3735V24.5962C49.8323 24.8196 49.6794 24.9725 49.4559 24.9725H37.4724C36.5552 24.9725 35.8613 24.2787 35.8613 23.3613V4.40411C35.8613 3.48682 36.5552 2.79297 37.4724 2.79297H49.4559Z" fill="#191E3B"/>
<path d="M77.8203 8.34424C74.716 8.34424 73.0692 9.70835 72.1167 10.9785V9.22622C72.1167 9.00275 71.9643 8.84991 71.7409 8.84991H69.2357C69.0123 8.84991 68.8594 9.01452 68.8594 9.22622V30.1121C68.8594 30.3356 69.0123 30.4885 69.2357 30.4885H71.7756C71.999 30.4885 72.1522 30.3356 72.1522 30.1121V22.9149C73.0692 24.185 74.716 25.4552 77.8203 25.4552C82.8657 25.4552 85.8054 21.6566 85.8054 16.8938C85.8054 12.131 82.8657 8.34424 77.8203 8.34424ZM77.2558 22.7268C74.1515 22.7268 72.0231 20.6335 72.0231 16.9291C72.0231 13.2247 74.1515 11.0608 77.2558 11.0608C80.3607 11.0608 82.4543 13.2129 82.4543 16.9291C82.4543 20.6335 80.3607 22.7268 77.2558 22.7268Z" fill="#191E3B"/>
<path d="M95.8022 8.34424C91.3923 8.34424 87.876 11.5194 87.876 16.7762C87.876 22.1623 90.9802 25.4669 96.2136 25.4669C99.2242 25.4669 101.729 24.138 103.282 22.2917C103.375 22.1976 103.411 22.1035 103.411 22.0094C103.411 21.9154 103.375 21.8213 103.282 21.7272L101.824 20.2925C101.729 20.1984 101.635 20.1631 101.541 20.1631C101.447 20.1631 101.353 20.2219 101.259 20.316C100.059 21.6213 98.4951 22.7268 96.249 22.7268C92.9675 22.7268 91.3923 20.7041 91.1448 17.7876H103.316C103.54 17.7876 103.693 17.6229 103.693 17.4113V16.7762C103.693 11.9545 100.777 8.34424 95.8022 8.34424ZM91.2625 15.3179C91.6391 12.6719 93.0263 10.9432 95.7788 10.9432C98.6008 10.9432 100.094 12.5543 100.306 15.3179H91.2625Z" fill="#191E3B"/>
<path d="M149.016 8.84931H146.511C146.288 8.84931 146.135 9.00222 146.135 9.22563V11.0014C145.182 9.7313 143.536 8.36719 140.361 8.36719C135.386 8.36719 132.435 12.1657 132.435 16.9285C132.435 21.6914 135.386 25.4899 140.361 25.4899C143.536 25.4899 145.182 24.1257 146.135 22.8556V24.5961C146.135 24.8195 146.288 24.9724 146.511 24.9724H149.016C149.24 24.9724 149.393 24.8195 149.393 24.5961V9.22563C149.404 9.00222 149.24 8.84931 149.016 8.84931ZM140.996 22.7615C137.891 22.7615 135.798 20.6095 135.798 16.8932C135.798 13.1888 137.891 11.0955 140.996 11.0955C144.101 11.0955 146.229 13.1888 146.229 16.8932C146.229 20.6095 144.101 22.7615 140.996 22.7615Z" fill="#191E3B"/>
<path d="M122.334 2.79297H119.794C119.571 2.79297 119.418 2.94586 119.418 3.16929V11.0015C118.465 9.73142 116.854 8.36723 113.679 8.36723C108.705 8.36723 105.753 12.1657 105.753 16.9286C105.753 21.6914 108.705 25.4899 113.679 25.4899C116.854 25.4899 118.5 24.1258 119.453 22.8557V24.5962C119.453 24.8196 119.606 24.9725 119.83 24.9725H122.334C122.558 24.9725 122.71 24.8196 122.71 24.5962V3.16929C122.71 2.94586 122.558 2.79297 122.334 2.79297ZM114.314 22.7616C111.21 22.7616 109.116 20.6095 109.116 16.8933C109.116 13.1889 111.21 11.0956 114.314 11.0956C117.419 11.0956 119.547 13.1889 119.547 16.8933C119.547 20.6095 117.419 22.7616 114.314 22.7616Z" fill="#191E3B"/>
<path d="M129.238 2.79297C129.461 2.79297 129.614 2.94585 129.614 3.16929V5.7683C129.614 5.9917 129.461 6.14461 129.238 6.14461H126.639C126.415 6.14461 126.263 5.9917 126.263 5.7683V3.16929C126.263 2.94585 126.415 2.79297 126.639 2.79297H129.238Z" fill="#191E3B"/>
<path d="M129.212 8.84961C129.435 8.84961 129.588 9.00252 129.588 9.22599V24.5964C129.588 24.8198 129.435 24.9727 129.212 24.9727H126.672C126.448 24.9727 126.295 24.8198 126.295 24.5964V9.22599C126.295 9.00252 126.448 8.84961 126.672 8.84961H129.212Z" fill="#191E3B"/>
</g>
</svg>
