<svg width="150" height="47" viewBox="0 0 150 47" fill="none" xmlns="http://www.w3.org/2000/svg">
<g clip-path="url(#clip0_146_259)">
<path d="M18.7634 16.7705V21.7909H30.8792C30.5575 24.5682 29.5926 26.7045 28.0915 28.0932C26.376 29.8023 23.5883 31.725 18.7634 31.725C11.3653 31.725 5.57541 25.7432 5.57541 18.3727C5.57541 11.0023 11.258 5.02045 18.7634 5.02045C22.7305 5.02045 25.7327 6.62273 27.8771 8.65227L31.4153 5.12727C28.4132 2.24318 24.3388 0 18.7634 0C8.57756 0 0 8.225 0 18.3727C0 28.5205 8.57756 36.7455 18.7634 36.7455C24.2316 36.7455 28.4132 34.9295 31.6297 31.6182C34.9535 28.3068 36.0257 23.6068 36.0257 19.8682C36.0257 18.6932 35.9185 17.625 35.8113 16.7705H18.7634Z" fill="#4285F4"/>
<path d="M51.0369 12.6045C44.4965 12.6045 39.0283 17.6249 39.0283 24.4613C39.0283 31.2977 44.3893 36.3181 51.0369 36.3181C57.6845 36.3181 63.0455 31.4045 63.0455 24.5681C63.0455 17.6249 57.6845 12.6045 51.0369 12.6045ZM51.0369 31.7249C47.3914 31.7249 44.2821 28.734 44.2821 24.5681C44.2821 20.2954 47.3914 17.4113 51.0369 17.4113C54.6824 17.4113 57.7917 20.2954 57.7917 24.5681C57.7917 28.734 54.6824 31.7249 51.0369 31.7249Z" fill="#EA4335"/>
<path d="M109.685 15.2749H109.471C108.291 13.8863 106.04 12.6045 103.145 12.6045C97.1407 12.6045 91.9941 17.7318 91.9941 24.4613C91.9941 31.084 97.1407 36.3181 103.145 36.3181C106.04 36.3181 108.291 35.0363 109.471 33.6477H109.685V35.3568C109.685 39.8431 107.219 42.2999 103.359 42.2999C100.143 42.2999 98.2129 40.0568 97.3551 38.0272L92.8519 39.9499C94.1385 43.0477 97.6768 46.9999 103.467 46.9999C109.578 46.9999 114.832 43.3681 114.832 34.609V13.2454H109.9V15.2749H109.685ZM103.681 31.7249C100.036 31.7249 97.3551 28.6272 97.3551 24.5681C97.3551 20.4022 100.143 17.4113 103.681 17.4113C107.219 17.4113 110.007 20.509 110.007 24.6749C110.114 28.734 107.327 31.7249 103.681 31.7249Z" fill="#4285F4"/>
<path d="M77.7342 12.6045C71.1938 12.6045 65.7256 17.6249 65.7256 24.4613C65.7256 31.2977 71.0866 36.3181 77.7342 36.3181C84.3818 36.3181 89.7427 31.4045 89.7427 24.5681C89.7427 17.6249 84.3818 12.6045 77.7342 12.6045ZM77.7342 31.7249C74.0887 31.7249 70.9793 28.734 70.9793 24.5681C70.9793 20.2954 74.0887 17.4113 77.7342 17.4113C81.3796 17.4113 84.489 20.2954 84.489 24.5681C84.489 28.734 81.3796 31.7249 77.7342 31.7249Z" fill="#FBBC05"/>
<path d="M118.799 0.53418H123.945V36.4251H118.799V0.53418Z" fill="#34A853"/>
<path d="M139.814 31.7249C137.133 31.7249 135.31 30.5499 134.024 28.0931L150 21.5772L149.463 20.1886C148.498 17.5181 145.389 12.6045 139.278 12.6045C133.166 12.6045 128.02 17.4113 128.02 24.4613C128.02 31.084 133.059 36.3181 139.814 36.3181C145.282 36.3181 148.391 33.0068 149.785 31.084L145.711 28.4136C144.317 30.4431 142.494 31.7249 139.814 31.7249ZM139.492 17.0909C141.636 17.0909 143.459 18.159 143.995 19.6545L133.273 24.1409C133.166 19.2272 136.812 17.0909 139.492 17.0909Z" fill="#EA4335"/>
</g>
<defs>
<clipPath id="clip0_146_259">
<rect width="150" height="47" fill="white"/>
</clipPath>
</defs>
</svg>
