<svg width="151" height="29" viewBox="0 0 151 29" fill="none" xmlns="http://www.w3.org/2000/svg">
<g clip-path="url(#clip0_146_242)">
<path fill-rule="evenodd" clip-rule="evenodd" d="M0.285645 29H29.0088V0H0.285645V29ZM30.6048 29H59.328V0H30.6048V29ZM89.6472 29H60.924V0H89.6472V29ZM91.2432 29H119.966V0H91.2432V29ZM150.286 29H121.562V0H150.286V29Z" fill="#FF690F"/>
<path fill-rule="evenodd" clip-rule="evenodd" d="M12.63 13.955V7.25H9.1416V21.75H12.63V15.0462L16.3032 21.75H20.1528L16.1568 14.5L20.1528 7.25H16.3032L12.63 13.955ZM42.372 19.6632L41.748 21.75H38.0232L42.7596 7.25H47.1948L51.9108 21.75H48.078L47.454 19.6632H42.372ZM44.9124 11.4018L43.2324 16.8152H46.5924L44.9124 11.4018ZM77.0616 21.75H73.5744V15.3579L68.8584 7.25H73.014L75.3396 11.7063L77.622 7.25H81.7128L77.0616 15.3579V21.75ZM103.01 19.6632L102.386 21.75H98.6604L103.398 7.25H107.833L112.549 21.75H108.716L108.092 19.6632H103.01ZM105.551 11.4018L103.871 16.8152H107.231L105.551 11.4018ZM133.907 13.955V7.25H130.418V21.75H133.907V15.0462L137.58 21.75H141.43L137.434 14.5L141.43 7.25H137.58L133.907 13.955Z" fill="#FAFAFC"/>
</g>
<defs>
<clipPath id="clip0_146_242">
<rect width="150" height="29" fill="white" transform="translate(0.285645)"/>
</clipPath>
</defs>
</svg>
