<svg width="64" height="58" viewBox="0 0 64 58" fill="none" xmlns="http://www.w3.org/2000/svg">
<path d="M62.0696 1L40.4029 55.4205C40.2567 55.71 40.0219 55.9553 39.7264 56.1273C39.431 56.2992 39.0873 56.3907 38.7362 56.3907C38.3852 56.3907 38.0415 56.2992 37.7461 56.1273C37.4506 55.9553 37.2158 55.71 37.0696 55.4205L25.4029 34.257L2.06957 23.6752C1.75043 23.5426 1.47999 23.3296 1.29039 23.0616C1.10079 22.7937 1 22.482 1 22.1635C1 21.8451 1.10079 21.5334 1.29039 21.2655C1.47999 20.9975 1.75043 20.7845 2.06957 20.6519L62.0696 1Z" stroke="#178FA0" stroke-width="2" stroke-linecap="round" stroke-linejoin="round"/>
</svg>
