<svg width="67" height="61" viewBox="0 0 67 61" fill="none" xmlns="http://www.w3.org/2000/svg">
<path d="M51.9267 7.35282L45.26 4.17829C39.4067 1.39377 36.48 0 33.3333 0C30.1867 0 27.26 1.39075 21.4067 4.17829L20.3367 4.68924L50.08 20.1054L63.4667 14.0284C61.3133 11.8153 57.84 10.1615 51.9267 7.34677M65.8267 18.0313L52.5 24.0781V33.257C52.5 33.8584 52.2366 34.4351 51.7678 34.8604C51.2989 35.2856 50.663 35.5245 50 35.5245C49.337 35.5245 48.7011 35.2856 48.2322 34.8604C47.7634 34.4351 47.5 33.8584 47.5 33.257V26.3456L35.8333 31.6365V60.177C38.2267 59.6358 40.95 58.3418 45.26 56.289L51.9267 53.1144C59.0967 49.7011 62.6833 47.9959 64.6767 44.9272C66.6667 41.8615 66.6667 38.043 66.6667 30.415V30.0613C66.6667 24.3381 66.6667 20.7584 65.8267 18.0313ZM30.8333 60.177V31.6365L0.84 18.0313C2.98023e-07 20.7584 0 24.3381 0 30.0553V30.409C0 38.043 -4.76837e-07 41.8615 1.99 44.9272C3.98333 47.9959 7.57 49.7041 14.74 53.1175L21.4067 56.289C25.7167 58.3418 28.44 59.6358 30.8333 60.177ZM3.2 14.0314L33.3333 27.697L44.7033 22.5422L15.0833 7.18956L14.74 7.35282C8.83 10.1645 5.35333 11.8183 3.2 14.0345" fill="#178FA0"/>
</svg>
