<svg width="44" height="67" viewBox="0 0 44 67" fill="none" xmlns="http://www.w3.org/2000/svg">
<path d="M35 0H8.33333C6.1232 0 4.00358 0.79633 2.44078 2.21381C0.877974 3.63128 0 5.55379 0 7.55841V58.9556C0 60.9602 0.877974 62.8827 2.44078 64.3002C4.00358 65.7177 6.1232 66.514 8.33333 66.514H35C37.2101 66.514 39.3298 65.7177 40.8926 64.3002C42.4554 62.8827 43.3333 60.9602 43.3333 58.9556V7.55841C43.3333 5.55379 42.4554 3.63128 40.8926 2.21381C39.3298 0.79633 37.2101 0 35 0ZM21.6667 63.4906C18.9 63.4906 16.6667 61.465 16.6667 58.9556C16.6667 56.4462 18.9 54.4205 21.6667 54.4205C24.4333 54.4205 26.6667 56.4462 26.6667 58.9556C26.6667 61.465 24.4333 63.4906 21.6667 63.4906ZM36.6667 51.3972H6.66667V9.07009H36.6667V51.3972Z" fill="#178FA0"/>
</svg>
