<svg width="60" height="61" viewBox="0 0 60 61" fill="none" xmlns="http://www.w3.org/2000/svg">
<path d="M27.5 0.00302314C25.48 0.344663 23.1067 1.08236 19.46 2.21613L17.55 2.80568C7.52667 5.91975 2.51667 7.47375 1.26 9.10032C0.0266666 10.6906 0 15.3526 0 24.6041L27.5 16.2899V0.00302314ZM27.5 21.0668L0 29.381V29.9887C0 47.0345 14.13 55.3064 22.9967 58.8195C24.6967 59.4937 25.7967 59.9291 27.5 60.1256V21.0668ZM32.5 60.1286V21.0668L60 29.381V29.9887C60 47.0345 45.87 55.3064 37.0033 58.8195C35.3033 59.4937 34.2033 59.9321 32.5 60.1286ZM32.5 16.2899V0C34.52 0.34164 36.8933 1.07934 40.54 2.2131L42.45 2.80568C52.4733 5.91672 57.4833 7.47073 58.74 9.0973C59.9733 10.6876 60 15.3496 60 24.5981L32.5 16.2899Z" fill="#178FA0"/>
</svg>
