<svg width="151" height="43" viewBox="0 0 151 43" fill="none" xmlns="http://www.w3.org/2000/svg">
<g clip-path="url(#clip0_146_247)">
<path d="M44.8252 10.1123H51.3209C51.5112 10.1123 51.6471 10.2758 51.6471 10.4392V31.5803C51.6471 31.771 51.484 31.9072 51.3209 31.9072H44.8252C44.6349 31.9072 44.499 31.7437 44.499 31.5803V10.4665C44.499 10.2758 44.6349 10.1123 44.8252 10.1123Z" fill="#E32851"/>
<path d="M70.1563 10.3303L65.862 21.7726C65.8349 21.827 65.7533 21.827 65.7261 21.7726L61.4047 10.3303C61.3503 10.194 61.2416 10.1123 61.0786 10.1123H53.9577C53.7131 10.1123 53.55 10.3575 53.6316 10.5754L62.1929 31.6892C62.2473 31.8254 62.356 31.9072 62.519 31.9072H68.7702C68.9061 31.9072 69.042 31.8254 69.0963 31.6892L77.6848 10.6027C77.7664 10.3847 77.6033 10.1395 77.3587 10.1395H70.4281C70.3194 10.1123 70.1835 10.2213 70.1563 10.3303Z" fill="#FF932C"/>
<path d="M138.402 9.78516C131.608 9.78516 126.661 14.58 126.661 21.0368C126.661 27.4935 131.608 32.2884 138.402 32.2884C145.116 32.2884 150.144 27.439 150.144 21.0368C150.144 14.6073 145.143 9.78516 138.402 9.78516ZM138.402 26.1586C135.739 26.1586 133.972 24.1153 133.972 21.0368C133.972 17.9582 135.739 15.915 138.402 15.915C141.039 15.915 142.833 17.9582 142.833 21.0368C142.833 24.088 141.039 26.1586 138.402 26.1586Z" fill="#0088D9"/>
<path d="M42.1075 10.0304C41.9173 9.97592 41.6727 9.92143 41.428 9.86694C41.0204 9.81246 36.5902 9.29483 34.1441 12.6185C34.0898 12.673 34.0082 12.6458 34.0082 12.5641V10.8205V10.4663C34.0082 10.2756 33.8451 10.1394 33.6821 10.1394H27.1592C26.9689 10.1394 26.833 10.3028 26.833 10.4663V31.5801C26.833 31.7708 26.9961 31.907 27.1592 31.907H33.6549C33.8451 31.907 33.981 31.7435 33.981 31.5801V23.7339C33.981 17.8766 36.6989 16.4054 39.3625 16.4054C39.6886 16.4054 40.5855 16.4054 41.8901 16.7596C42.1075 16.8141 42.3249 16.6506 42.3249 16.4326V10.3301C42.3249 10.1939 42.2434 10.0576 42.1075 10.0304Z" fill="#E32851"/>
<path d="M48.0874 0.25C45.8044 0.25 43.9834 2.02083 43.9834 4.22756C43.9834 6.4343 45.8316 8.20513 48.0874 8.20513C50.3704 8.20513 52.1914 6.4343 52.1914 4.22756C52.1914 2.02083 50.3432 0.25 48.0874 0.25Z" fill="#E32851"/>
<path d="M99.9713 10.1122H93.4756C93.2853 10.1122 93.1494 10.2757 93.1494 10.4392V12.5097C93.1494 12.5914 93.0407 12.6186 93.0135 12.5369C90.6761 7.60583 76.7334 8.55935 76.7334 20.9824C76.7334 32.5882 88.6377 34.6587 93.0135 29.8094C93.0679 29.7549 93.1494 29.7821 93.1494 29.8638V31.5529C93.1494 31.7436 93.3125 31.8799 93.4756 31.8799H99.9713C100.162 31.8799 100.297 31.7164 100.297 31.5529V10.4664C100.297 10.2757 100.162 10.1122 99.9713 10.1122ZM88.6106 26.1315C85.7568 26.1315 83.7455 24.1154 83.7455 21.0369C83.7455 17.9584 85.7568 15.8879 88.6106 15.8879C91.5187 15.8879 93.4756 17.9856 93.4756 21.0369C93.4756 24.0882 91.5187 26.1315 88.6106 26.1315Z" fill="#FF932C"/>
<path d="M124.542 10.1124H118.046C117.856 10.1124 117.72 10.2759 117.72 10.4393V12.5098C117.72 12.5916 117.611 12.6188 117.584 12.5371C115.219 7.5515 102.255 8.8047 102.255 20.356C102.255 31.6893 114.078 32.6428 117.611 29.3191C117.665 29.2646 117.747 29.3191 117.747 29.3736V30.3816C117.665 35.2037 111.632 37.2743 108.56 33.6236C108.452 33.4874 108.261 33.4602 108.126 33.5691L102.608 37.1925C102.445 37.3015 102.418 37.5194 102.527 37.6829C109.539 47.2727 124.786 42.396 124.895 30.4906V10.4666C124.895 10.2759 124.732 10.1124 124.542 10.1124ZM113.806 24.9874C111.224 24.9874 109.403 23.1893 109.403 20.3832C109.403 17.5771 111.197 15.7518 113.806 15.7518C116.442 15.7518 118.209 17.6316 118.209 20.3832C118.209 23.1348 116.442 24.9874 113.806 24.9874Z" fill="#0088D9"/>
<path d="M24.5501 20.0016H18.0272C17.8642 20.0016 17.7011 20.1378 17.7011 20.3285C17.4837 22.9984 15.255 25.1234 12.5371 25.1234C9.24846 25.0962 7.9167 22.3173 7.9167 22.3173C7.34595 21.2548 7.31877 20.2196 7.31877 20.0016C7.31877 19.9744 7.34595 19.9471 7.34595 19.9471L9.22129 18.9119L21.0169 12.3734C21.2072 12.2644 21.3159 12.0737 21.3159 11.883V4.85418C21.3159 4.60899 21.0441 4.44553 20.8266 4.5545L7.42748 11.9648C7.37312 11.992 7.31877 11.9648 7.31877 11.9103V0.849372C7.31877 0.576937 7.0198 0.413475 6.80237 0.576937L0.388164 4.71796C0.225091 4.82694 0.143555 4.9904 0.143555 5.1811V19.9744C0.197912 26.7853 5.71522 32.2885 12.5099 32.2885C19.1959 32.2885 24.6317 26.976 24.8763 20.3285C24.9035 20.1651 24.7404 20.0016 24.5501 20.0016Z" fill="#E32851"/>
</g>
<defs>
<clipPath id="clip0_146_247">
<rect width="150" height="42.5" fill="white" transform="translate(0.143555 0.25)"/>
</clipPath>
</defs>
</svg>
