<svg width="62" height="46" viewBox="0 0 62 46" fill="none" xmlns="http://www.w3.org/2000/svg">
<path d="M40.3 0C41.9443 0 43.5213 0.597247 44.6841 1.66035C45.8468 2.72346 46.5 4.16535 46.5 5.66881V8.50321H51.212C52.1413 8.50332 53.0586 8.69442 53.8963 9.06238C54.7339 9.43034 55.4703 9.96575 56.0511 10.629L60.6391 15.8755C61.5198 16.8808 61.9998 18.1304 62 19.4185V31.1784C62 32.6819 61.3468 34.1238 60.1841 35.1869C59.0213 36.25 57.4443 36.8472 55.8 36.8472H52.7C52.7 39.1024 51.7202 41.2653 49.9761 42.8599C48.232 44.4546 45.8665 45.3505 43.4 45.3505C40.9335 45.3505 38.568 44.4546 36.8239 42.8599C35.0798 41.2653 34.1 39.1024 34.1 36.8472H24.8C24.8 37.9639 24.5594 39.0696 24.0921 40.1013C23.6247 41.1329 22.9397 42.0703 22.0761 42.8599C21.2125 43.6495 20.1873 44.2759 19.059 44.7032C17.9306 45.1305 16.7213 45.3505 15.5 45.3505C14.2787 45.3505 13.0694 45.1305 11.941 44.7032C10.8127 44.2759 9.78749 43.6495 8.92391 42.8599C8.06032 42.0703 7.37529 41.1329 6.90792 40.1013C6.44055 39.0696 6.2 37.9639 6.2 36.8472C4.55566 36.8472 2.97866 36.25 1.81594 35.1869C0.653212 34.1238 0 32.6819 0 31.1784V5.66881C0 4.16535 0.653212 2.72346 1.81594 1.66035C2.97866 0.597247 4.55566 0 6.2 0H40.3ZM15.5 34.0128C14.6778 34.0128 13.8893 34.3115 13.308 34.843C12.7266 35.3746 12.4 36.0955 12.4 36.8472C12.4 37.599 12.7266 38.3199 13.308 38.8515C13.8893 39.383 14.6778 39.6816 15.5 39.6816C16.3222 39.6816 17.1107 39.383 17.692 38.8515C18.2734 38.3199 18.6 37.599 18.6 36.8472C18.6 36.0955 18.2734 35.3746 17.692 34.843C17.1107 34.3115 16.3222 34.0128 15.5 34.0128ZM43.4 34.0128C42.5778 34.0128 41.7893 34.3115 41.208 34.843C40.6266 35.3746 40.3 36.0955 40.3 36.8472C40.3 37.599 40.6266 38.3199 41.208 38.8515C41.7893 39.383 42.5778 39.6816 43.4 39.6816C44.2222 39.6816 45.0107 39.383 45.592 38.8515C46.1734 38.3199 46.5 37.599 46.5 36.8472C46.5 36.0955 46.1734 35.3746 45.592 34.843C45.0107 34.3115 44.2222 34.0128 43.4 34.0128ZM51.212 14.172H46.5V25.5096H55.8V19.4157L51.212 14.172Z" fill="#178FA0"/>
</svg>
